<?xml version="1.0" standalone="no"?>
<!DOCTYPE svg PUBLIC "-//W3C//DTD SVG 20010904//EN"
 "http://www.w3.org/TR/2001/REC-SVG-20010904/DTD/svg10.dtd">
<svg version="1.0" xmlns="http://www.w3.org/2000/svg"
 width="229.000000pt" height="229.000000pt" viewBox="0 0 229.000000 229.000000"
 preserveAspectRatio="xMidYMid meet">
<metadata>
Created by potrace 1.11, written by Peter Selinger 2001-2013
</metadata>
<g transform="translate(0.000000,229.000000) scale(0.100000,-0.100000)"
fill="#000000" stroke="none">
<path d="M1408 2228 c-22 -6 -40 -18 -43 -29 -4 -10 -10 -19 -13 -19 -8 0 -14
-34 -15 -82 -1 -23 -4 -25 -17 -15 -8 6 -19 16 -25 22 -25 26 -124 85 -142 85
-16 0 -25 -10 -34 -37 -7 -21 -12 -46 -11 -55 1 -25 -8 -23 -48 12 -19 16 -40
30 -46 30 -7 0 -31 -23 -55 -51 -24 -28 -50 -57 -56 -64 -7 -8 -13 -18 -13
-24 0 -24 20 -8 66 53 l49 63 58 -39 c34 -23 57 -34 58 -26 1 21 9 61 17 91
l7 28 65 -51 c36 -28 78 -61 94 -73 16 -12 48 -41 72 -65 l43 -43 -20 -39
c-25 -47 -49 -44 -49 7 0 39 -37 83 -70 83 -31 0 -87 -26 -97 -45 -5 -9 -26
-20 -47 -25 -36 -8 -37 -7 -52 29 -15 39 -57 71 -92 71 -30 0 -80 -55 -88 -96
-4 -20 -4 -60 0 -89 l6 -53 -59 -63 c-32 -35 -70 -78 -85 -95 -14 -18 -109
-89 -211 -158 -248 -171 -255 -181 -47 -81 130 63 159 74 148 57 -12 -20 17
-83 50 -111 48 -39 110 -55 216 -54 49 0 87 -1 85 -3 -5 -5 -48 -12 -78 -13
-23 -1 -27 -6 -33 -39 -10 -63 -92 -121 -194 -138 -39 -6 -41 -8 -35 -33 9
-32 9 -123 -1 -176 -10 -57 -48 -135 -87 -180 -26 -29 -28 -35 -11 -24 33 20
95 105 137 188 31 60 39 69 53 61 34 -20 48 -36 66 -78 20 -44 61 -86 95 -97
14 -4 20 -19 25 -60 8 -68 38 -150 66 -180 l21 -22 -59 -6 c-85 -7 -120 -32
-163 -115 -22 -41 -62 -83 -105 -108 -18 -11 -18 -13 10 -42 16 -17 40 -32 54
-34 14 -2 30 -12 36 -23 20 -35 35 -46 70 -52 52 -8 97 12 196 88 50 38 92 69
94 69 1 0 8 -18 15 -40 14 -47 61 -104 105 -127 20 -11 65 -18 128 -20 l97 -4
-10 33 c-5 18 -8 76 -7 128 2 116 -16 165 -89 238 l-49 49 65 50 c93 69 126
135 126 248 l0 81 30 -17 c99 -57 244 -71 322 -31 36 19 93 77 93 95 0 3 -27
18 -60 33 -77 34 -104 67 -131 157 -11 40 -30 87 -41 105 -27 44 -84 80 -133
84 -22 2 -42 6 -45 10 -3 4 -3 34 0 66 3 32 1 97 -5 144 l-10 86 46 93 c26 53
49 88 53 81 12 -19 73 -31 110 -21 24 7 39 19 49 42 57 119 -11 285 -124 303
-30 5 -54 18 -83 47 -67 64 -120 78 -208 55z"/>
</g>
</svg>
